<?xml version="1.0" encoding="utf-8"?>
<!-- Generator: Adobe Illustrator 14.0.0, SVG Export Plug-In . SVG Version: 6.00 Build 43363)  -->
<!DOCTYPE svg PUBLIC "-//W3C//DTD SVG 1.0//EN" "http://www.w3.org/TR/2001/REC-SVG-20010904/DTD/svg10.dtd">
<svg version="1.0" id="Layer_1" xmlns="http://www.w3.org/2000/svg" xmlns:xlink="http://www.w3.org/1999/xlink" x="0px" y="0px"
	 width="63.441px" height="100px" viewBox="0 0 63.441 100" enable-background="new 0 0 63.441 100" xml:space="preserve">
<path d="M51.819,92.837h-6.016v-49.6c1.726,0,1.592,0.795,1.592,1.323v38.595c0,5.039,3.714,8.487,8.089,8.487
	c4.51,0,7.957-3.58,7.957-8.354c0-4.777-6.364-18.567-6.364-23.076V23.342c0-2.786-1.061-5.174-2.52-6.368l-8.754-7.16V4.11
	c0-2.251-1.857-4.11-4.112-4.11H10.127C7.873,0,6.016,1.859,6.016,4.11v88.727H0V100h51.819V92.837z M37.845,27.851H13.974
	c-1.062,0-2.121-0.929-2.121-2.12V7.427c0-1.191,1.059-2.121,2.121-2.121h23.871c1.062,0,2.123,0.93,2.123,2.121v18.305
	C39.968,26.922,38.907,27.851,37.845,27.851z M55.484,87.798c-2.521,0-4.111-1.856-4.111-4.643V40.583
	c0-1.459-1.723-2.123-3.313-2.123h-2.256V15.252c1.061,0.795,1.855,1.723,1.855,2.786v7.693h5.305v33.154
	c0,8.353,6.633,19.626,6.633,24.403C59.597,85.809,58.004,87.798,55.484,87.798z"/>
</svg>
