<svg xmlns="http://www.w3.org/2000/svg" xmlns:xlink="http://www.w3.org/1999/xlink" version="1.1" id="Layer_1" x="0px" y="0px" width="100.003px" height="62.861px" viewBox="0 0 100.003 62.861" enable-background="new 0 0 100.003 62.861" xml:space="preserve">
<path d="M81.978,34.831c-0.193,2.585-0.699,5.17-1.53,7.698c2.648,3.388,3.696,6.219,2.66,8.015  c-2.815,4.875-19.92,0.271-38.204-10.286C26.62,29.702,14.08,17.191,16.895,12.315c1.036-1.795,4.01-2.304,8.265-1.705  c1.774-1.984,3.76-3.715,5.903-5.175C15.379-0.545,3.356-1.892,0.589,2.901c-4.202,7.277,14.515,25.949,41.805,41.705  c27.289,15.756,52.818,22.629,57.02,15.352C102.182,55.164,95.002,45.424,81.978,34.831z"/>
<path d="M21.806,20.559c0.696,0.815,1.505,1.691,2.447,2.631c5.199,5.187,12.872,10.82,21.603,15.861  c8.731,5.042,17.446,8.869,24.538,10.778c1.282,0.346,2.442,0.608,3.493,0.802c4.212-5.221,6.735-11.861,6.735-19.091  c0-16.806-13.624-30.43-30.43-30.43C37.259,1.11,26.211,9.18,21.806,20.559z"/>
<path d="M19.765,31.319c0,0.074-0.002,0.147-0.002,0.221c0,16.806,13.624,30.431,30.43,30.431c5.624,0,10.891-1.528,15.411-4.188  c-7.564-3.074-15.675-7.069-23.779-11.749C33.722,41.357,26.208,36.332,19.765,31.319z"/>
</svg>